<mxfile host="app.diagrams.net" agent="Mozilla/5.0 (Windows NT 10.0; Win64; x64) AppleWebKit/537.36 (KHTML, like Gecko) Chrome/127.0.0.0 Safari/537.36" version="24.7.6" pages="3">
  <diagram id="Gehhd0Lp0ui3dAg5o4ho" name="Requirements">
    <mxGraphModel dx="1050" dy="522" grid="0" gridSize="10" guides="1" tooltips="1" connect="1" arrows="1" fold="1" page="1" pageScale="1" pageWidth="827" pageHeight="1169" math="0" shadow="0">
      <root>
        <mxCell id="0" />
        <mxCell id="1" parent="0" />
      </root>
    </mxGraphModel>
  </diagram>
  <diagram name="Architecture" id="duz1KIpX776iNiZyyS4a">
    <mxGraphModel dx="1105" dy="549" grid="0" gridSize="10" guides="1" tooltips="1" connect="1" arrows="1" fold="1" page="1" pageScale="1" pageWidth="827" pageHeight="1169" math="0" shadow="0">
      <root>
        <mxCell id="0" />
        <mxCell id="1" parent="0" />
        <mxCell id="c5qsvyVxBnoyHUvuB3k_-98" value="" style="edgeStyle=orthogonalEdgeStyle;rounded=0;orthogonalLoop=1;jettySize=auto;html=1;" edge="1" parent="1" source="c5qsvyVxBnoyHUvuB3k_-1" target="c5qsvyVxBnoyHUvuB3k_-97">
          <mxGeometry relative="1" as="geometry">
            <Array as="points">
              <mxPoint x="98" y="604" />
              <mxPoint x="98" y="604" />
            </Array>
          </mxGeometry>
        </mxCell>
        <mxCell id="c5qsvyVxBnoyHUvuB3k_-1" value="&lt;div&gt;&lt;br/&gt;&lt;/div&gt;" style="rounded=0;whiteSpace=wrap;html=1;shadow=0;glass=0;strokeWidth=2;" vertex="1" parent="1">
          <mxGeometry x="80" y="120" width="680" height="440" as="geometry" />
        </mxCell>
        <mxCell id="c5qsvyVxBnoyHUvuB3k_-2" value="Architecture" style="text;html=1;align=center;verticalAlign=middle;whiteSpace=wrap;rounded=0;fontSize=24;fontStyle=1;fontColor=#99004D;" vertex="1" parent="1">
          <mxGeometry x="347.25" y="28" width="130" height="50" as="geometry" />
        </mxCell>
        <mxCell id="c5qsvyVxBnoyHUvuB3k_-3" value="Client" style="text;html=1;align=center;verticalAlign=middle;whiteSpace=wrap;rounded=0;fontSize=14;fontStyle=1" vertex="1" parent="1">
          <mxGeometry x="390" y="90" width="60" height="30" as="geometry" />
        </mxCell>
        <mxCell id="c5qsvyVxBnoyHUvuB3k_-5" value="" style="rounded=1;whiteSpace=wrap;html=1;" vertex="1" parent="1">
          <mxGeometry x="125" y="167" width="200" height="146" as="geometry" />
        </mxCell>
        <mxCell id="c5qsvyVxBnoyHUvuB3k_-73" value="" style="edgeStyle=orthogonalEdgeStyle;rounded=0;orthogonalLoop=1;jettySize=auto;html=1;" edge="1" parent="1">
          <mxGeometry relative="1" as="geometry">
            <mxPoint x="452" y="296" as="sourcePoint" />
            <mxPoint x="500.5" y="374" as="targetPoint" />
            <Array as="points">
              <mxPoint x="452" y="335" />
              <mxPoint x="501" y="335" />
            </Array>
          </mxGeometry>
        </mxCell>
        <mxCell id="c5qsvyVxBnoyHUvuB3k_-74" value="" style="edgeStyle=orthogonalEdgeStyle;rounded=0;orthogonalLoop=1;jettySize=auto;html=1;entryX=0;entryY=0.203;entryDx=0;entryDy=0;entryPerimeter=0;" edge="1" parent="1" target="c5qsvyVxBnoyHUvuB3k_-7">
          <mxGeometry relative="1" as="geometry">
            <mxPoint x="537" y="238" as="sourcePoint" />
            <mxPoint x="580" y="270.5" as="targetPoint" />
          </mxGeometry>
        </mxCell>
        <mxCell id="c5qsvyVxBnoyHUvuB3k_-6" value="" style="rounded=1;whiteSpace=wrap;html=1;" vertex="1" parent="1">
          <mxGeometry x="354" y="167" width="207" height="146" as="geometry" />
        </mxCell>
        <mxCell id="c5qsvyVxBnoyHUvuB3k_-7" value="" style="rounded=1;whiteSpace=wrap;html=1;" vertex="1" parent="1">
          <mxGeometry x="590" y="167" width="138" height="353" as="geometry" />
        </mxCell>
        <mxCell id="c5qsvyVxBnoyHUvuB3k_-8" value="View" style="text;html=1;align=center;verticalAlign=middle;whiteSpace=wrap;rounded=0;fontSize=14;fontStyle=1" vertex="1" parent="1">
          <mxGeometry x="195" y="137" width="60" height="30" as="geometry" />
        </mxCell>
        <mxCell id="c5qsvyVxBnoyHUvuB3k_-9" value="Controller" style="text;html=1;align=center;verticalAlign=middle;whiteSpace=wrap;rounded=0;fontSize=14;fontStyle=1" vertex="1" parent="1">
          <mxGeometry x="427.5" y="137" width="60" height="30" as="geometry" />
        </mxCell>
        <mxCell id="c5qsvyVxBnoyHUvuB3k_-10" value="Services" style="text;html=1;align=center;verticalAlign=middle;whiteSpace=wrap;rounded=0;fontSize=14;fontStyle=1" vertex="1" parent="1">
          <mxGeometry x="629" y="137" width="60" height="30" as="geometry" />
        </mxCell>
        <mxCell id="c5qsvyVxBnoyHUvuB3k_-11" value="" style="rounded=1;whiteSpace=wrap;html=1;" vertex="1" parent="1">
          <mxGeometry x="354" y="374" width="207" height="146" as="geometry" />
        </mxCell>
        <mxCell id="c5qsvyVxBnoyHUvuB3k_-12" value="Storage" style="text;html=1;align=center;verticalAlign=middle;whiteSpace=wrap;rounded=0;fontSize=14;fontStyle=1" vertex="1" parent="1">
          <mxGeometry x="427.5" y="344" width="60" height="30" as="geometry" />
        </mxCell>
        <mxCell id="c5qsvyVxBnoyHUvuB3k_-13" value="" style="rounded=1;whiteSpace=wrap;html=1;fillColor=#ffe6cc;strokeColor=#d79b00;" vertex="1" parent="1">
          <mxGeometry x="144.5" y="185.5" width="74.5" height="47" as="geometry" />
        </mxCell>
        <mxCell id="c5qsvyVxBnoyHUvuB3k_-18" value="Browse / P. Listing&amp;nbsp;" style="text;html=1;align=center;verticalAlign=middle;whiteSpace=wrap;rounded=0;" vertex="1" parent="1">
          <mxGeometry x="151.75" y="194" width="60" height="30" as="geometry" />
        </mxCell>
        <mxCell id="c5qsvyVxBnoyHUvuB3k_-20" value="" style="rounded=1;whiteSpace=wrap;html=1;fillColor=#ffe6cc;strokeColor=#d79b00;" vertex="1" parent="1">
          <mxGeometry x="231" y="185.5" width="74.5" height="47" as="geometry" />
        </mxCell>
        <mxCell id="c5qsvyVxBnoyHUvuB3k_-21" value="" style="rounded=1;whiteSpace=wrap;html=1;fillColor=#ffe6cc;strokeColor=#d79b00;" vertex="1" parent="1">
          <mxGeometry x="231" y="247.5" width="74.5" height="47" as="geometry" />
        </mxCell>
        <mxCell id="c5qsvyVxBnoyHUvuB3k_-22" value="" style="rounded=1;whiteSpace=wrap;html=1;fillColor=#ffe6cc;strokeColor=#d79b00;" vertex="1" parent="1">
          <mxGeometry x="144.5" y="247.5" width="74.5" height="47" as="geometry" />
        </mxCell>
        <mxCell id="c5qsvyVxBnoyHUvuB3k_-23" value="Product Details" style="text;html=1;align=center;verticalAlign=middle;whiteSpace=wrap;rounded=0;" vertex="1" parent="1">
          <mxGeometry x="238.25" y="194" width="60" height="30" as="geometry" />
        </mxCell>
        <mxCell id="c5qsvyVxBnoyHUvuB3k_-24" value="Cart Page" style="text;html=1;align=center;verticalAlign=middle;whiteSpace=wrap;rounded=0;" vertex="1" parent="1">
          <mxGeometry x="151.75" y="256" width="60" height="30" as="geometry" />
        </mxCell>
        <mxCell id="c5qsvyVxBnoyHUvuB3k_-25" value="Checkout Page" style="text;html=1;align=center;verticalAlign=middle;whiteSpace=wrap;rounded=0;" vertex="1" parent="1">
          <mxGeometry x="238.25" y="256" width="60" height="30" as="geometry" />
        </mxCell>
        <mxCell id="c5qsvyVxBnoyHUvuB3k_-27" value="" style="rounded=1;whiteSpace=wrap;html=1;fillColor=#d5e8d4;strokeColor=#82b366;" vertex="1" parent="1">
          <mxGeometry x="376" y="185.5" width="47" height="47" as="geometry" />
        </mxCell>
        <mxCell id="c5qsvyVxBnoyHUvuB3k_-39" value="Routing, Design System" style="text;html=1;align=center;verticalAlign=middle;whiteSpace=wrap;rounded=0;" vertex="1" parent="1">
          <mxGeometry x="91" y="325" width="152" height="30" as="geometry" />
        </mxCell>
        <mxCell id="c5qsvyVxBnoyHUvuB3k_-40" value="" style="endArrow=classic;html=1;rounded=0;" edge="1" parent="1">
          <mxGeometry width="50" height="50" relative="1" as="geometry">
            <mxPoint x="161" y="330" as="sourcePoint" />
            <mxPoint x="179" y="318" as="targetPoint" />
            <Array as="points">
              <mxPoint x="172" y="328" />
            </Array>
          </mxGeometry>
        </mxCell>
        <mxCell id="c5qsvyVxBnoyHUvuB3k_-42" value="" style="rounded=1;whiteSpace=wrap;html=1;fillColor=#d5e8d4;strokeColor=#82b366;" vertex="1" parent="1">
          <mxGeometry x="434" y="185.5" width="47" height="47" as="geometry" />
        </mxCell>
        <mxCell id="c5qsvyVxBnoyHUvuB3k_-43" value="" style="rounded=1;whiteSpace=wrap;html=1;fillColor=#d5e8d4;strokeColor=#82b366;" vertex="1" parent="1">
          <mxGeometry x="494.25" y="185.5" width="47" height="47" as="geometry" />
        </mxCell>
        <mxCell id="c5qsvyVxBnoyHUvuB3k_-44" value="" style="rounded=1;whiteSpace=wrap;html=1;fillColor=#d5e8d4;strokeColor=#82b366;" vertex="1" parent="1">
          <mxGeometry x="376" y="247.5" width="47" height="47" as="geometry" />
        </mxCell>
        <mxCell id="c5qsvyVxBnoyHUvuB3k_-45" value="" style="rounded=1;whiteSpace=wrap;html=1;fillColor=#d5e8d4;strokeColor=#82b366;" vertex="1" parent="1">
          <mxGeometry x="434" y="247.5" width="47" height="47" as="geometry" />
        </mxCell>
        <mxCell id="c5qsvyVxBnoyHUvuB3k_-46" value="" style="rounded=1;whiteSpace=wrap;html=1;fillColor=#d5e8d4;strokeColor=#82b366;" vertex="1" parent="1">
          <mxGeometry x="494.25" y="247.5" width="47" height="47" as="geometry" />
        </mxCell>
        <mxCell id="c5qsvyVxBnoyHUvuB3k_-47" value="Search" style="text;html=1;align=center;verticalAlign=middle;whiteSpace=wrap;rounded=0;" vertex="1" parent="1">
          <mxGeometry x="369.5" y="194" width="60" height="30" as="geometry" />
        </mxCell>
        <mxCell id="c5qsvyVxBnoyHUvuB3k_-48" value="Filter" style="text;html=1;align=center;verticalAlign=middle;whiteSpace=wrap;rounded=0;strokeWidth=1;" vertex="1" parent="1">
          <mxGeometry x="427.5" y="194" width="60" height="30" as="geometry" />
        </mxCell>
        <mxCell id="c5qsvyVxBnoyHUvuB3k_-49" value="State Management" style="rounded=1;whiteSpace=wrap;html=1;fillColor=#fff2cc;strokeColor=#d6b656;" vertex="1" parent="1">
          <mxGeometry x="371.5" y="391" width="80.5" height="47" as="geometry" />
        </mxCell>
        <mxCell id="c5qsvyVxBnoyHUvuB3k_-50" value="API Cache" style="rounded=1;whiteSpace=wrap;html=1;fillColor=#fff2cc;strokeColor=#d6b656;" vertex="1" parent="1">
          <mxGeometry x="468" y="454" width="76" height="47" as="geometry" />
        </mxCell>
        <mxCell id="c5qsvyVxBnoyHUvuB3k_-51" value="Browser Storage" style="rounded=1;whiteSpace=wrap;html=1;fillColor=#fff2cc;strokeColor=#d6b656;" vertex="1" parent="1">
          <mxGeometry x="468" y="391" width="75.5" height="47" as="geometry" />
        </mxCell>
        <mxCell id="c5qsvyVxBnoyHUvuB3k_-52" value="Service Worker" style="rounded=1;whiteSpace=wrap;html=1;fillColor=#fff2cc;strokeColor=#d6b656;" vertex="1" parent="1">
          <mxGeometry x="371.5" y="454" width="81.5" height="47" as="geometry" />
        </mxCell>
        <mxCell id="c5qsvyVxBnoyHUvuB3k_-53" value="&lt;font style=&quot;font-size: 11px;&quot;&gt;Address&lt;/font&gt;" style="text;html=1;align=center;verticalAlign=middle;whiteSpace=wrap;rounded=0;strokeWidth=1;fontSize=11;" vertex="1" parent="1">
          <mxGeometry x="487.5" y="194" width="60" height="30" as="geometry" />
        </mxCell>
        <mxCell id="c5qsvyVxBnoyHUvuB3k_-54" value="&lt;font style=&quot;font-size: 11px;&quot;&gt;Coupon&lt;/font&gt;" style="text;html=1;align=center;verticalAlign=middle;whiteSpace=wrap;rounded=0;strokeWidth=1;" vertex="1" parent="1">
          <mxGeometry x="369.5" y="256" width="60" height="30" as="geometry" />
        </mxCell>
        <mxCell id="c5qsvyVxBnoyHUvuB3k_-55" value="&lt;font style=&quot;font-size: 11px;&quot;&gt;Cart&lt;/font&gt;" style="text;html=1;align=center;verticalAlign=middle;whiteSpace=wrap;rounded=0;strokeWidth=1;" vertex="1" parent="1">
          <mxGeometry x="427.5" y="256" width="60" height="30" as="geometry" />
        </mxCell>
        <mxCell id="c5qsvyVxBnoyHUvuB3k_-61" value="" style="endArrow=classic;html=1;rounded=0;exitX=0.999;exitY=0.466;exitDx=0;exitDy=0;exitPerimeter=0;" edge="1" parent="1" source="c5qsvyVxBnoyHUvuB3k_-5">
          <mxGeometry width="50" height="50" relative="1" as="geometry">
            <mxPoint x="328" y="234" as="sourcePoint" />
            <mxPoint x="354" y="235" as="targetPoint" />
            <Array as="points" />
          </mxGeometry>
        </mxCell>
        <mxCell id="c5qsvyVxBnoyHUvuB3k_-97" value="" style="rounded=0;whiteSpace=wrap;html=1;" vertex="1" parent="1">
          <mxGeometry x="82" y="645" width="678" height="409" as="geometry" />
        </mxCell>
        <mxCell id="c5qsvyVxBnoyHUvuB3k_-69" value="Browse" style="rounded=1;whiteSpace=wrap;html=1;fillColor=#dae8fc;strokeColor=#6c8ebf;" vertex="1" parent="1">
          <mxGeometry x="604" y="191" width="110" height="44" as="geometry" />
        </mxCell>
        <mxCell id="c5qsvyVxBnoyHUvuB3k_-70" value="Product" style="rounded=1;whiteSpace=wrap;html=1;fillColor=#dae8fc;strokeColor=#6c8ebf;" vertex="1" parent="1">
          <mxGeometry x="604" y="250.5" width="110" height="44" as="geometry" />
        </mxCell>
        <mxCell id="c5qsvyVxBnoyHUvuB3k_-71" value="Cart" style="rounded=1;whiteSpace=wrap;html=1;fillColor=#dae8fc;strokeColor=#6c8ebf;" vertex="1" parent="1">
          <mxGeometry x="604" y="311" width="110" height="44" as="geometry" />
        </mxCell>
        <mxCell id="c5qsvyVxBnoyHUvuB3k_-72" value="Checkout" style="rounded=1;whiteSpace=wrap;html=1;fillColor=#dae8fc;strokeColor=#6c8ebf;" vertex="1" parent="1">
          <mxGeometry x="604" y="372" width="110" height="44" as="geometry" />
        </mxCell>
        <mxCell id="c5qsvyVxBnoyHUvuB3k_-88" value="" style="edgeStyle=orthogonalEdgeStyle;rounded=0;orthogonalLoop=1;jettySize=auto;html=1;" edge="1" parent="1" source="c5qsvyVxBnoyHUvuB3k_-76" target="c5qsvyVxBnoyHUvuB3k_-83">
          <mxGeometry relative="1" as="geometry" />
        </mxCell>
        <mxCell id="c5qsvyVxBnoyHUvuB3k_-103" style="edgeStyle=orthogonalEdgeStyle;rounded=0;orthogonalLoop=1;jettySize=auto;html=1;entryX=0;entryY=0.5;entryDx=0;entryDy=0;" edge="1" parent="1" source="c5qsvyVxBnoyHUvuB3k_-76" target="c5qsvyVxBnoyHUvuB3k_-82">
          <mxGeometry relative="1" as="geometry" />
        </mxCell>
        <mxCell id="c5qsvyVxBnoyHUvuB3k_-104" style="edgeStyle=orthogonalEdgeStyle;rounded=0;orthogonalLoop=1;jettySize=auto;html=1;entryX=0;entryY=0.5;entryDx=0;entryDy=0;" edge="1" parent="1" source="c5qsvyVxBnoyHUvuB3k_-76" target="c5qsvyVxBnoyHUvuB3k_-81">
          <mxGeometry relative="1" as="geometry" />
        </mxCell>
        <mxCell id="c5qsvyVxBnoyHUvuB3k_-105" style="edgeStyle=orthogonalEdgeStyle;rounded=0;orthogonalLoop=1;jettySize=auto;html=1;entryX=0;entryY=0.5;entryDx=0;entryDy=0;" edge="1" parent="1" source="c5qsvyVxBnoyHUvuB3k_-76" target="c5qsvyVxBnoyHUvuB3k_-84">
          <mxGeometry relative="1" as="geometry" />
        </mxCell>
        <mxCell id="c5qsvyVxBnoyHUvuB3k_-76" value="" style="rounded=1;whiteSpace=wrap;html=1;fillColor=#fff2cc;strokeColor=#d6b656;" vertex="1" parent="1">
          <mxGeometry x="134.5" y="701" width="27" height="311" as="geometry" />
        </mxCell>
        <mxCell id="c5qsvyVxBnoyHUvuB3k_-78" value="API Gateway" style="text;html=1;align=center;verticalAlign=middle;whiteSpace=wrap;rounded=0;fontStyle=1" vertex="1" parent="1">
          <mxGeometry x="118" y="660" width="60" height="30" as="geometry" />
        </mxCell>
        <mxCell id="c5qsvyVxBnoyHUvuB3k_-111" style="edgeStyle=orthogonalEdgeStyle;rounded=0;orthogonalLoop=1;jettySize=auto;html=1;entryX=0;entryY=0.5;entryDx=0;entryDy=0;" edge="1" parent="1" source="c5qsvyVxBnoyHUvuB3k_-81" target="c5qsvyVxBnoyHUvuB3k_-96">
          <mxGeometry relative="1" as="geometry">
            <Array as="points">
              <mxPoint x="393" y="748" />
              <mxPoint x="393" y="724" />
            </Array>
          </mxGeometry>
        </mxCell>
        <mxCell id="c5qsvyVxBnoyHUvuB3k_-81" value="Auth" style="rounded=1;whiteSpace=wrap;html=1;fillColor=#e1d5e7;strokeColor=#9673a6;" vertex="1" parent="1">
          <mxGeometry x="227" y="720.75" width="120" height="53.5" as="geometry" />
        </mxCell>
        <mxCell id="c5qsvyVxBnoyHUvuB3k_-110" value="" style="edgeStyle=orthogonalEdgeStyle;rounded=0;orthogonalLoop=1;jettySize=auto;html=1;" edge="1" parent="1" source="c5qsvyVxBnoyHUvuB3k_-82" target="c5qsvyVxBnoyHUvuB3k_-87">
          <mxGeometry relative="1" as="geometry" />
        </mxCell>
        <mxCell id="c5qsvyVxBnoyHUvuB3k_-112" style="edgeStyle=orthogonalEdgeStyle;rounded=0;orthogonalLoop=1;jettySize=auto;html=1;entryX=0;entryY=0.5;entryDx=0;entryDy=0;" edge="1" parent="1" source="c5qsvyVxBnoyHUvuB3k_-82" target="c5qsvyVxBnoyHUvuB3k_-96">
          <mxGeometry relative="1" as="geometry">
            <Array as="points">
              <mxPoint x="393" y="823" />
              <mxPoint x="393" y="724" />
            </Array>
          </mxGeometry>
        </mxCell>
        <mxCell id="c5qsvyVxBnoyHUvuB3k_-82" value="Product" style="rounded=1;whiteSpace=wrap;html=1;fillColor=#e1d5e7;strokeColor=#9673a6;" vertex="1" parent="1">
          <mxGeometry x="227" y="796.75" width="120" height="52.5" as="geometry" />
        </mxCell>
        <mxCell id="c5qsvyVxBnoyHUvuB3k_-109" value="" style="edgeStyle=orthogonalEdgeStyle;rounded=0;orthogonalLoop=1;jettySize=auto;html=1;" edge="1" parent="1" source="c5qsvyVxBnoyHUvuB3k_-84" target="c5qsvyVxBnoyHUvuB3k_-86">
          <mxGeometry relative="1" as="geometry" />
        </mxCell>
        <mxCell id="c5qsvyVxBnoyHUvuB3k_-84" value="Checkout" style="rounded=1;whiteSpace=wrap;html=1;fillColor=#e1d5e7;strokeColor=#9673a6;" vertex="1" parent="1">
          <mxGeometry x="227" y="941.75" width="120" height="50.5" as="geometry" />
        </mxCell>
        <mxCell id="c5qsvyVxBnoyHUvuB3k_-83" value="Cart" style="rounded=1;whiteSpace=wrap;html=1;fillColor=#e1d5e7;strokeColor=#9673a6;" vertex="1" parent="1">
          <mxGeometry x="227" y="870.25" width="120" height="50.5" as="geometry" />
        </mxCell>
        <mxCell id="c5qsvyVxBnoyHUvuB3k_-86" value="Payment Gateway" style="rhombus;whiteSpace=wrap;html=1;fillColor=#e1d5e7;strokeColor=#9673a6;rounded=1;" vertex="1" parent="1">
          <mxGeometry x="407" y="878" width="96" height="101" as="geometry" />
        </mxCell>
        <mxCell id="c5qsvyVxBnoyHUvuB3k_-87" value="CDN" style="rhombus;whiteSpace=wrap;html=1;fillColor=#e1d5e7;strokeColor=#9673a6;rounded=1;" vertex="1" parent="1">
          <mxGeometry x="413.5" y="778.63" width="88" height="88.75" as="geometry" />
        </mxCell>
        <mxCell id="c5qsvyVxBnoyHUvuB3k_-96" value="Database" style="ellipse;whiteSpace=wrap;html=1;aspect=fixed;fillColor=#e1d5e7;strokeColor=#9673a6;" vertex="1" parent="1">
          <mxGeometry x="544" y="684" width="80" height="80" as="geometry" />
        </mxCell>
        <mxCell id="c5qsvyVxBnoyHUvuB3k_-99" value="Server" style="text;html=1;align=center;verticalAlign=middle;whiteSpace=wrap;rounded=0;fontSize=14;fontStyle=1" vertex="1" parent="1">
          <mxGeometry x="391" y="615" width="60" height="30" as="geometry" />
        </mxCell>
      </root>
    </mxGraphModel>
  </diagram>
  <diagram id="Ppr_kt0htyUaR5myThvY" name="Data Model, API, Optimization">
    <mxGraphModel dx="840" dy="418" grid="0" gridSize="10" guides="1" tooltips="1" connect="1" arrows="1" fold="1" page="1" pageScale="1" pageWidth="827" pageHeight="1169" math="0" shadow="0">
      <root>
        <mxCell id="0" />
        <mxCell id="1" parent="0" />
        <mxCell id="S_3Vfk0fr7YPPjqmpW3q-1" value="Data Model" style="text;html=1;align=center;verticalAlign=middle;whiteSpace=wrap;rounded=0;fontSize=24;fontStyle=1;fontColor=#99004D;" vertex="1" parent="1">
          <mxGeometry x="342" y="35" width="144" height="50" as="geometry" />
        </mxCell>
        <mxCell id="DLgp6bpaEmBf-MGH_N-j-11" value="&lt;b style=&quot;font-size: 14px;&quot;&gt;Product&lt;/b&gt;" style="text;html=1;align=center;verticalAlign=middle;whiteSpace=wrap;rounded=0;fontSize=14;" vertex="1" parent="1">
          <mxGeometry x="60" y="140" width="60" height="30" as="geometry" />
        </mxCell>
        <mxCell id="DLgp6bpaEmBf-MGH_N-j-12" value="&lt;b style=&quot;font-size: 14px;&quot;&gt;CartItem&lt;/b&gt;" style="text;html=1;align=center;verticalAlign=middle;whiteSpace=wrap;rounded=0;fontSize=14;" vertex="1" parent="1">
          <mxGeometry x="228" y="140" width="60" height="30" as="geometry" />
        </mxCell>
        <mxCell id="DLgp6bpaEmBf-MGH_N-j-13" value="&lt;b style=&quot;font-size: 14px;&quot;&gt;Address&lt;/b&gt;" style="text;html=1;align=center;verticalAlign=middle;whiteSpace=wrap;rounded=0;fontSize=14;" vertex="1" parent="1">
          <mxGeometry x="376" y="140" width="60" height="30" as="geometry" />
        </mxCell>
        <mxCell id="DLgp6bpaEmBf-MGH_N-j-14" value="&lt;b style=&quot;font-size: 14px;&quot;&gt;Payment&lt;span style=&quot;white-space: pre; font-size: 14px;&quot;&gt;&#x9;&lt;/span&gt;&amp;nbsp;&lt;br&gt;Summary&lt;/b&gt;" style="text;html=1;align=center;verticalAlign=middle;whiteSpace=wrap;rounded=0;fontSize=14;" vertex="1" parent="1">
          <mxGeometry x="497" y="140" width="107" height="30" as="geometry" />
        </mxCell>
        <mxCell id="DLgp6bpaEmBf-MGH_N-j-15" value="&lt;b style=&quot;font-size: 14px;&quot;&gt;Coupon&lt;/b&gt;" style="text;html=1;align=center;verticalAlign=middle;whiteSpace=wrap;rounded=0;fontSize=14;" vertex="1" parent="1">
          <mxGeometry x="664" y="140" width="60" height="30" as="geometry" />
        </mxCell>
        <mxCell id="DLgp6bpaEmBf-MGH_N-j-16" value="- id&lt;div style=&quot;line-height: 180%;&quot;&gt;- name&lt;/div&gt;&lt;div style=&quot;line-height: 180%;&quot;&gt;- description&lt;/div&gt;&lt;div style=&quot;line-height: 180%;&quot;&gt;- assets (img/video)&lt;/div&gt;&lt;div style=&quot;line-height: 180%;&quot;&gt;- price (mrp, currency,&lt;br&gt;&amp;nbsp; discountedPrice)&lt;/div&gt;" style="text;html=1;align=left;verticalAlign=top;whiteSpace=wrap;rounded=0;" vertex="1" parent="1">
          <mxGeometry x="60" y="192" width="189" height="130" as="geometry" />
        </mxCell>
        <mxCell id="DLgp6bpaEmBf-MGH_N-j-17" value="- id&lt;div style=&quot;line-height: 180%;&quot;&gt;- productIds&lt;/div&gt;&lt;div style=&quot;line-height: 180%;&quot;&gt;- quantity&lt;/div&gt;&lt;div style=&quot;line-height: 180%;&quot;&gt;- price (finalPrice)&lt;/div&gt;" style="text;html=1;align=left;verticalAlign=top;whiteSpace=wrap;rounded=0;" vertex="1" parent="1">
          <mxGeometry x="228" y="192" width="110" height="101" as="geometry" />
        </mxCell>
        <mxCell id="DLgp6bpaEmBf-MGH_N-j-19" value="- id&lt;div style=&quot;line-height: 180%;&quot;&gt;- name&lt;/div&gt;&lt;div style=&quot;line-height: 180%;&quot;&gt;- street&lt;/div&gt;&lt;div style=&quot;line-height: 180%;&quot;&gt;- city&lt;/div&gt;&lt;div style=&quot;line-height: 180%;&quot;&gt;- country&lt;/div&gt;&lt;div style=&quot;line-height: 180%;&quot;&gt;- pincode&lt;/div&gt;" style="text;html=1;align=left;verticalAlign=top;whiteSpace=wrap;rounded=0;" vertex="1" parent="1">
          <mxGeometry x="376" y="192" width="110" height="137" as="geometry" />
        </mxCell>
        <mxCell id="DLgp6bpaEmBf-MGH_N-j-20" value="- price&lt;div style=&quot;line-height: 180%;&quot;&gt;&amp;nbsp; &amp;nbsp;- productPrices&lt;/div&gt;&lt;div style=&quot;line-height: 180%;&quot;&gt;&amp;nbsp; &amp;nbsp;- coupons&lt;/div&gt;&lt;div style=&quot;line-height: 180%;&quot;&gt;&amp;nbsp; &amp;nbsp;- taxes&lt;/div&gt;&lt;div style=&quot;line-height: 180%;&quot;&gt;&amp;nbsp; &amp;nbsp;- deliveryCharge&lt;/div&gt;&lt;div style=&quot;line-height: 180%;&quot;&gt;&amp;nbsp; &amp;nbsp;- finalPrice&lt;/div&gt;" style="text;html=1;align=left;verticalAlign=top;whiteSpace=wrap;rounded=0;" vertex="1" parent="1">
          <mxGeometry x="515" y="192" width="110" height="137" as="geometry" />
        </mxCell>
        <mxCell id="DLgp6bpaEmBf-MGH_N-j-21" value="- id&lt;div style=&quot;line-height: 180%;&quot;&gt;- details&lt;/div&gt;&lt;div style=&quot;line-height: 180%;&quot;&gt;- type (Fixed / %)&lt;/div&gt;&lt;div style=&quot;line-height: 180%;&quot;&gt;- value&lt;/div&gt;&lt;div style=&quot;line-height: 180%;&quot;&gt;- rules[]&lt;/div&gt;" style="text;html=1;align=left;verticalAlign=top;whiteSpace=wrap;rounded=0;" vertex="1" parent="1">
          <mxGeometry x="664" y="192" width="110" height="114" as="geometry" />
        </mxCell>
        <mxCell id="DLgp6bpaEmBf-MGH_N-j-30" value="API" style="text;html=1;align=center;verticalAlign=middle;whiteSpace=wrap;rounded=0;fontSize=24;fontStyle=1;fontColor=#99004D;" vertex="1" parent="1">
          <mxGeometry x="342" y="367" width="144" height="50" as="geometry" />
        </mxCell>
        <mxCell id="DLgp6bpaEmBf-MGH_N-j-31" value="- ProductList (search + filter) | /products | POST | Response: Product[]&lt;div&gt;&lt;br&gt;&lt;/div&gt;&lt;div&gt;- Product Detail | /cart/:id | GET&lt;/div&gt;&lt;div&gt;&lt;br&gt;&lt;/div&gt;&lt;div&gt;- Cart Update (Add, Remove, Change Quantity) | POST&lt;/div&gt;&lt;div&gt;&lt;br&gt;&lt;/div&gt;&lt;div&gt;- Cart Listing | /cart | GET | Response: Cart[]&lt;/div&gt;&lt;div&gt;&lt;br&gt;&lt;/div&gt;&lt;div&gt;- Coupon List | GET&lt;/div&gt;&lt;div&gt;&lt;br&gt;&lt;/div&gt;&lt;div&gt;- Price Summary | GET&lt;/div&gt;&lt;div&gt;&lt;br&gt;&lt;/div&gt;&lt;div&gt;- Payment Gateway | POST&lt;/div&gt;" style="text;html=1;align=left;verticalAlign=top;whiteSpace=wrap;rounded=0;" vertex="1" parent="1">
          <mxGeometry x="178.5" y="442" width="505" height="214" as="geometry" />
        </mxCell>
        <mxCell id="DLgp6bpaEmBf-MGH_N-j-32" value="Optimization" style="text;html=1;align=center;verticalAlign=middle;whiteSpace=wrap;rounded=0;fontSize=24;fontStyle=1;fontColor=#99004D;" vertex="1" parent="1">
          <mxGeometry x="342" y="695" width="144" height="50" as="geometry" />
        </mxCell>
        <mxCell id="e90KJ_69HCFdsd4QfufJ-1" value="- Lazy Loading &amp;amp; Code Splitting&lt;div style=&quot;line-height: 150%;&quot;&gt;&lt;br&gt;&lt;/div&gt;&lt;div style=&quot;line-height: 150%;&quot;&gt;- ATF (above the fold - viewport)&lt;/div&gt;&lt;div style=&quot;line-height: 150%;&quot;&gt;&amp;nbsp; &amp;nbsp; - async / defer&lt;/div&gt;&lt;div style=&quot;line-height: 150%;&quot;&gt;&amp;nbsp; &amp;nbsp; - prefetch&lt;/div&gt;&lt;div style=&quot;line-height: 150%;&quot;&gt;&lt;br&gt;&lt;/div&gt;&lt;div style=&quot;line-height: 150%;&quot;&gt;- Image Optimization&lt;/div&gt;&lt;div style=&quot;line-height: 150%;&quot;&gt;&amp;nbsp; &amp;nbsp; - webp&lt;/div&gt;&lt;div style=&quot;line-height: 150%;&quot;&gt;&amp;nbsp; &amp;nbsp; - lazy loading&lt;/div&gt;&lt;div style=&quot;line-height: 150%;&quot;&gt;&amp;nbsp; &amp;nbsp; - image priority&lt;/div&gt;&lt;div style=&quot;line-height: 150%;&quot;&gt;&amp;nbsp; &amp;nbsp; - device pixel ratio&lt;/div&gt;&lt;div style=&quot;line-height: 150%;&quot;&gt;&amp;nbsp; &amp;nbsp; - services: tinyPNG / Akamai&lt;/div&gt;&lt;div style=&quot;line-height: 150%;&quot;&gt;&amp;nbsp;&amp;nbsp;&lt;/div&gt;&lt;div style=&quot;line-height: 150%;&quot;&gt;- CDN / Service Worker for Caching Images&lt;/div&gt;&lt;div style=&quot;line-height: 150%;&quot;&gt;&lt;br&gt;&lt;/div&gt;&lt;div style=&quot;line-height: 150%;&quot;&gt;- Adaptive Loading (based on Network qlty, System capability)&lt;/div&gt;&lt;div style=&quot;line-height: 150%;&quot;&gt;&lt;br&gt;&lt;/div&gt;&lt;div style=&quot;line-height: 150%;&quot;&gt;- Improving LightHouse Score (LCP, CLS, TBT)&lt;/div&gt;" style="text;html=1;align=left;verticalAlign=top;whiteSpace=wrap;rounded=0;" vertex="1" parent="1">
          <mxGeometry x="120" y="752" width="505" height="320" as="geometry" />
        </mxCell>
      </root>
    </mxGraphModel>
  </diagram>
</mxfile>
